<?xml version="1.0" encoding="UTF-8" standalone="no"?>
<!-- Created with Inkscape (http://www.inkscape.org/) -->

<svg
   width="48"
   height="48"
   viewBox="0 0 48 48"
   version="1.1"
   id="SVGRoot"
   sodipodi:docname="original_tracedtext.svg"
   inkscape:version="1.1.2 (b8e25be833, 2022-02-05)"
   inkscape:export-filename="../Projects/somix/assets/somix_v3.webp"
   inkscape:export-xdpi="1536"
   inkscape:export-ydpi="1536"
   xmlns:inkscape="http://www.inkscape.org/namespaces/inkscape"
   xmlns:sodipodi="http://sodipodi.sourceforge.net/DTD/sodipodi-0.dtd"
   xmlns="http://www.w3.org/2000/svg"
   xmlns:svg="http://www.w3.org/2000/svg">
  <sodipodi:namedview
     id="namedview1790"
     pagecolor="#ffffff"
     bordercolor="#111111"
     borderopacity="1"
     inkscape:showpageshadow="0"
     inkscape:pageopacity="0"
     inkscape:pagecheckerboard="1"
     inkscape:deskcolor="#d1d1d1"
     inkscape:document-units="px"
     showgrid="true"
     inkscape:zoom="32"
     inkscape:cx="16.015625"
     inkscape:cy="86.421875"
     inkscape:window-width="2082"
     inkscape:window-height="981"
     inkscape:window-x="732"
     inkscape:window-y="855"
     inkscape:window-maximized="0"
     inkscape:current-layer="layer2"
     inkscape:pageshadow="2"
     inkscape:snap-grids="true">
    <inkscape:grid
       type="xygrid"
       id="grid1796"
       visible="false"
       spacingx="0.25"
       spacingy="0.25"
       empspacing="4"
       enabled="false" />
    <inkscape:grid
       type="xygrid"
       id="grid37377"
       spacingx="5"
       spacingy="5"
       color="#ff3f3f"
       opacity="0.32156863"
       empspacing="1"
       empcolor="#ff3f3f"
       empopacity="0.50196078"
       visible="false"
       enabled="false" />
  </sodipodi:namedview>
  <defs
     id="defs1785">
    <linearGradient
       id="linearGradient5385"
       inkscape:swatch="solid">
      <stop
         style="stop-color:#00bca0;stop-opacity:1;"
         offset="0"
         id="stop5383" />
    </linearGradient>
  </defs>
  <g
     inkscape:label="BG"
     inkscape:groupmode="layer"
     id="layer1"
     sodipodi:insensitive="true"
     style="display:none">
    <rect
       style="opacity:1;fill:#00bc82;fill-opacity:1;stroke:none;stroke-width:9.14286;stroke-opacity:0.7;paint-order:markers fill stroke"
       id="rect1775"
       width="48"
       height="48"
       x="0"
       y="0"
       rx="6"
       ry="6"
       inkscape:export-filename="C:\Users\sooba\rect1775.png"
       inkscape:export-xdpi="1536"
       inkscape:export-ydpi="1536" />
  </g>
  <g
     inkscape:groupmode="layer"
     id="layer2"
     inkscape:label="FG">
    <rect
       style="fill:#333333;fill-opacity:1;stroke:none;stroke-width:7.83836;stroke-miterlimit:4;stroke-dasharray:none;stroke-opacity:1;paint-order:markers fill stroke"
       id="rect10742"
       width="64"
       height="24"
       x="26"
       y="0" />
    <path
       style="fill:#00cc8d;fill-opacity:1;stroke:none;stroke-width:1px;stroke-linecap:butt;stroke-linejoin:miter;stroke-opacity:1"
       d="m 33,4 h -3 v 16 h 3 V 19 H 31 V 5 h 2 z"
       id="path10744" />
    <path
       style="fill:#00cc8d;fill-opacity:1;stroke:none;stroke-width:1px;stroke-linecap:butt;stroke-linejoin:miter;stroke-opacity:1"
       d="m 83,4 v 1 h 2 v 14 h -2 v 1 h 3 V 4 Z"
       id="path10746" />
    <g
       aria-label="somix"
       id="text10750"
       style="font-weight:bold;font-size:16px;line-height:1.25;font-family:Pretendard;-inkscape-font-specification:'Pretendard Bold';fill:#00cc8d">
      <path
         d="M 41.140625,10.990234 Q 41.0625,10.544922 40.695312,10.279297 40.328125,10.013672 39.75,10.005859 q -0.5625,0.0078 -0.9375,0.25 -0.375,0.234375 -0.375,0.617188 0,0.304687 0.25,0.523437 0.257812,0.210938 0.84375,0.328125 l 1.515625,0.3125 q 1.242187,0.257813 1.84375,0.820313 0.601562,0.5625 0.609375,1.476562 0,0.828125 -0.476563,1.460938 -0.46875,0.632812 -1.320312,0.984375 -0.851563,0.351562 -1.96875,0.351562 -1.132813,0 -1.960938,-0.320312 -0.820312,-0.328125 -1.296875,-0.929688 -0.46875,-0.609375 -0.570312,-1.4375 h 2.328125 q 0.07813,0.492188 0.460937,0.75 0.390625,0.257813 1.039063,0.265625 0.640625,-0.0078 1.023437,-0.242187 0.382813,-0.242188 0.382813,-0.648438 0,-0.328125 -0.28125,-0.539062 -0.28125,-0.210938 -0.875,-0.335938 l -1.40625,-0.28125 Q 37.367187,13.169922 36.75,12.560547 q -0.617188,-0.609375 -0.609375,-1.554688 0,-0.804687 0.4375,-1.3984371 0.4375,-0.6015625 1.242187,-0.921875 0.8125,-0.3203125 1.898438,-0.3203125 1.054687,0 1.84375,0.3203125 0.789062,0.3203125 1.234375,0.9140625 Q 43.25,10.185547 43.3125,10.990234 Z"
         id="path1072" />
      <path
         d="m 48.734375,17.130859 q -1.265625,0 -2.210938,-0.546875 -0.9375,-0.554687 -1.445312,-1.546875 -0.5,-0.992187 -0.5,-2.296875 0,-1.304687 0.5,-2.289062 0.507812,-0.9921876 1.445312,-1.5390626 0.945313,-0.546875 2.210938,-0.546875 1.265625,0 2.203125,0.546875 0.945312,0.546875 1.453125,1.5390626 0.515625,0.984375 0.515625,2.289062 0,1.304688 -0.515625,2.296875 Q 51.882812,16.029297 50.9375,16.583984 50,17.130859 48.734375,17.130859 Z m -1.8125,-4.390625 q 0,0.757813 0.203125,1.34375 0.210937,0.578125 0.625,0.914063 0.414062,0.335937 1,0.335937 0.570312,0 0.976562,-0.328125 0.40625,-0.335937 0.609375,-0.914062 0.210938,-0.578125 0.210938,-1.320313 0,-0.765625 -0.203125,-1.359375 -0.203125,-0.601562 -0.609375,-0.9375 -0.40625,-0.34375 -0.984375,-0.34375 -0.585938,0 -1,0.335938 -0.414063,0.335937 -0.625,0.929687 -0.203125,0.585938 -0.203125,1.34375 z"
         id="path1074" />
      <path
         d="M 54.359375,8.4746094 H 56.5625 v 1.484375 h 0.09375 q 0.273437,-0.75 0.890625,-1.171875 0.617187,-0.421875 1.46875,-0.421875 0.867187,0 1.484375,0.4296875 0.617187,0.4296875 0.828125,1.1640625 h 0.07813 q 0.265625,-0.7265625 0.953125,-1.15625 0.6875,-0.4375 1.609375,-0.4375 0.789062,0 1.390625,0.34375 0.609375,0.3359375 0.945312,0.9921875 0.335938,0.6484371 0.335938,1.5546871 v 5.703125 h -2.3125 v -5.25 q 0.0078,-0.703125 -0.367188,-1.070312 Q 63.59375,10.271484 63,10.271484 q -0.640625,0 -1.015625,0.414063 -0.367188,0.40625 -0.359375,1.085937 v 5.1875 h -2.25 v -5.3125 q 0.0078,-0.625 -0.359375,-1 -0.359375,-0.375 -0.953125,-0.375 -0.390625,0 -0.710938,0.203125 -0.320312,0.195313 -0.5,0.5625 -0.179687,0.359375 -0.179687,0.828125 v 5.09375 h -2.3125 z"
         id="path1076" />
      <path
         d="m 68.421875,8.4746094 h 2.3125 v 8.4843746 h -2.3125 z m 1.15625,-1.109375 q -0.34375,0 -0.632813,-0.15625 Q 68.65625,7.0449219 68.484375,6.7792969 68.3125,6.5058594 68.3125,6.1933594 q 0,-0.3203125 0.171875,-0.59375 0.171875,-0.2734375 0.460937,-0.4296875 0.289063,-0.1640625 0.632813,-0.1640625 0.335937,0 0.625,0.1640625 0.289062,0.15625 0.453125,0.4296875 0.171875,0.2734375 0.171875,0.59375 0,0.3125 -0.171875,0.5859375 -0.164063,0.265625 -0.453125,0.4296875 -0.289063,0.15625 -0.625,0.15625 z"
         id="path1078" />
      <path
         d="m 76.03125,11.458984 1.609375,-2.9843746 h 2.390625 l -2.484375,4.2343746 2.546875,4.25 h -2.375 l -1.6875,-2.953125 -1.65625,2.953125 h -2.40625 l 2.53125,-4.25 -2.4375,-4.2343746 h 2.390625 z"
         id="path1080" />
    </g>
    <g
       aria-label="s"
       id="text3826-5"
       style="font-weight:600;font-size:34.6667px;line-height:1.25;font-family:Pretendard;-inkscape-font-specification:'Pretendard Semi-Bold';fill:#ffffff"
       transform="translate(-21.657709,-15.675133)" />
    <rect
       style="fill:#333333;fill-opacity:1;stroke:none;stroke-width:8.0796;stroke-miterlimit:4;stroke-dasharray:none;stroke-opacity:1;paint-order:markers fill stroke"
       id="rect16283"
       width="24"
       height="24"
       x="0"
       y="0" />
    <path
       style="fill:#00cc8d;fill-opacity:1;stroke:none;stroke-width:1px;stroke-linecap:butt;stroke-linejoin:miter;stroke-opacity:1"
       d="M 5,4 H 2 V 20 H 5 V 19 H 3 V 5 h 2 z"
       id="path16285" />
    <path
       style="fill:#00cc8d;fill-opacity:1;stroke:none;stroke-width:1px;stroke-linecap:butt;stroke-linejoin:miter;stroke-opacity:1"
       d="m 19,4 v 1 h 2 v 14 h -2 v 1 h 3 V 4 Z"
       id="path16287" />
    <g
       aria-label="s"
       id="text10750-3"
       style="font-weight:bold;font-size:16px;line-height:1.25;font-family:Pretendard;-inkscape-font-specification:'Pretendard Bold';word-spacing:0px;fill:#00cc8d">
      <path
         d="M 13.4375,10.850784 Q 13.359375,10.405472 12.992188,10.139847 12.625,9.8742218 12.046875,9.8664093 q -0.5625,0.00781 -0.9375,0.2499997 -0.375,0.234375 -0.375,0.617188 0,0.304687 0.25,0.523437 0.257813,0.210938 0.84375,0.328125 l 1.515625,0.3125 q 1.242188,0.257813 1.84375,0.820313 0.601563,0.5625 0.609375,1.476562 0,0.828125 -0.476562,1.460938 -0.46875,0.632812 -1.320313,0.984375 -0.851562,0.351562 -1.96875,0.351562 -1.132812,0 -1.960937,-0.320312 Q 9.25,16.342972 8.7734375,15.741409 8.3046875,15.132034 8.203125,14.303909 h 2.328125 q 0.07813,0.492188 0.460938,0.75 0.390625,0.257813 1.039062,0.265625 0.640625,-0.0078 1.023438,-0.242187 0.382812,-0.242188 0.382812,-0.648438 0,-0.328125 -0.28125,-0.539062 -0.28125,-0.210938 -0.875,-0.335938 L 10.875,13.272659 Q 9.6640625,13.030472 9.046875,12.421097 8.4296875,11.811722 8.4375,10.866409 q 0,-0.804687 0.4375,-1.3984372 0.4375,-0.6015625 1.242188,-0.921875 0.8125,-0.3203125 1.898437,-0.3203125 1.054688,0 1.84375,0.3203125 0.789063,0.3203125 1.234375,0.9140625 0.453125,0.5859377 0.515625,1.3906247 z"
         id="path1101" />
    </g>
    <rect
       style="fill:#00ad78;fill-opacity:1;stroke:none;stroke-width:5.3864;stroke-miterlimit:4;stroke-dasharray:none;stroke-opacity:1;paint-order:markers fill stroke"
       id="rect46540"
       width="16"
       height="16"
       x="0"
       y="78" />
    <path
       style="fill:#ffffff;fill-opacity:1;stroke:none;stroke-width:1px;stroke-linecap:butt;stroke-linejoin:miter;stroke-opacity:1"
       d="M 5,80 H 2 V 92 H 5 V 91 H 3 V 81 h 2 z"
       id="path16285-3"
       sodipodi:nodetypes="ccccccccc" />
    <path
       style="fill:#ffffff;fill-opacity:1;stroke:none;stroke-width:1px;stroke-linecap:butt;stroke-linejoin:miter;stroke-opacity:1"
       d="m 11,80 v 1 h 2 v 10 h -2 v 1 h 3 V 80 Z"
       id="path16287-9"
       sodipodi:nodetypes="ccccccccc" />
    <g
       aria-label="s"
       id="text10750-3-4"
       style="font-weight:bold;font-size:12px;line-height:1.25;font-family:Pretendard;-inkscape-font-specification:'Pretendard Bold';word-spacing:0px;fill:#ffffff">
      <path
         d="M 9.078125,84.68175 Q 9.0195313,84.347765 8.7441406,84.148546 8.46875,83.949328 8.0351563,83.943468 q -0.4218751,0.0059 -0.7031251,0.1875 -0.28125,0.175782 -0.28125,0.462891 0,0.228516 0.1875,0.392578 0.1933594,0.158203 0.6328125,0.246094 l 1.1367188,0.234375 q 0.9316406,0.193359 1.3828125,0.615234 0.451172,0.421875 0.457031,1.107422 0,0.621094 -0.357422,1.095703 -0.351562,0.47461 -0.990234,0.738281 -0.6386719,0.263672 -1.4765625,0.263672 -0.8496094,0 -1.4707031,-0.240234 Q 5.9375,88.80089 5.5800781,88.349718 5.2285156,87.892687 5.1523437,87.271593 h 1.7460938 q 0.058594,0.369141 0.3457031,0.5625 0.2929688,0.19336 0.7792969,0.199219 0.4804688,-0.0059 0.7675781,-0.181641 0.2871094,-0.18164 0.2871094,-0.486328 0,-0.246093 -0.2109375,-0.404297 Q 8.65625,86.802843 8.2109375,86.709093 L 7.15625,86.498156 Q 6.2480469,86.316515 5.7851562,85.859484 5.3222656,85.402453 5.328125,84.693468 q 0,-0.603515 0.328125,-1.048828 Q 5.984375,83.193468 6.5878906,82.953234 7.1972656,82.713 8.0117188,82.713 q 0.7910156,0 1.3828125,0.240234 0.5917968,0.240234 0.9257817,0.685547 0.339843,0.439453 0.386718,1.042969 z"
         id="path1873" />
    </g>
    <rect
       style="fill:#00ad78;fill-opacity:1;stroke:none;stroke-width:10.7728;stroke-miterlimit:4;stroke-dasharray:none;stroke-opacity:1;paint-order:markers fill stroke"
       id="rect52858"
       width="32"
       height="32"
       x="18"
       y="78" />
    <path
       style="fill:#ffffff;fill-opacity:1;stroke:none;stroke-width:1px;stroke-linecap:butt;stroke-linejoin:miter;stroke-opacity:1"
       d="m 27,86 h -3 v 16 h 3 v -1 H 25 V 87 h 2 z"
       id="path16285-4" />
    <path
       style="fill:#ffffff;fill-opacity:1;stroke:none;stroke-width:1px;stroke-linecap:butt;stroke-linejoin:miter;stroke-opacity:1"
       d="m 41,86 v 1 h 2 v 14 h -2 v 1 h 3 V 86 Z"
       id="path16287-4" />
    <g
       aria-label="s"
       id="text10750-3-1"
       style="font-weight:bold;font-size:16px;line-height:1.25;font-family:Pretendard;-inkscape-font-specification:'Pretendard Bold';word-spacing:0px;fill:#ffffff">
      <path
         d="m 35.4375,92.850784 q -0.07813,-0.445312 -0.445313,-0.710937 -0.367187,-0.265625 -0.945312,-0.273438 -0.5625,0.0078 -0.9375,0.25 -0.375,0.234375 -0.375,0.617188 0,0.304687 0.25,0.523437 0.257812,0.210938 0.84375,0.328125 l 1.515625,0.3125 q 1.242187,0.257813 1.84375,0.820313 0.601562,0.5625 0.609375,1.476562 0,0.828125 -0.476563,1.460938 -0.46875,0.632812 -1.320312,0.984375 -0.851563,0.351562 -1.96875,0.351562 -1.132813,0 -1.960938,-0.320312 -0.820312,-0.328125 -1.296875,-0.929688 -0.46875,-0.609375 -0.570312,-1.4375 h 2.328125 q 0.07813,0.492188 0.460937,0.75 0.390625,0.257813 1.039063,0.265625 0.640625,-0.0078 1.023437,-0.242187 0.382813,-0.242188 0.382813,-0.648438 0,-0.328125 -0.28125,-0.539062 -0.28125,-0.210938 -0.875,-0.335938 L 32.875,95.272659 q -1.210938,-0.242187 -1.828125,-0.851562 -0.617188,-0.609375 -0.609375,-1.554688 0,-0.804687 0.4375,-1.398437 0.4375,-0.601563 1.242187,-0.921875 0.8125,-0.320313 1.898438,-0.320313 1.054687,0 1.84375,0.320313 0.789062,0.320312 1.234375,0.914062 0.453125,0.585938 0.515625,1.390625 z"
         id="path1852" />
    </g>
    <rect
       style="fill:#00ad78;fill-opacity:1;stroke:none;stroke-width:7.83836;stroke-miterlimit:4;stroke-dasharray:none;stroke-opacity:1;paint-order:markers fill stroke"
       id="rect53168"
       width="64"
       height="24"
       x="26"
       y="26" />
    <path
       style="fill:#ffffff;fill-opacity:1;stroke:none;stroke-width:1px;stroke-linecap:butt;stroke-linejoin:miter;stroke-opacity:1"
       d="m 33,30 h -3 v 16 h 3 V 45 H 31 V 31 h 2 z"
       id="path53170" />
    <path
       style="fill:#ffffff;fill-opacity:1;stroke:none;stroke-width:1px;stroke-linecap:butt;stroke-linejoin:miter;stroke-opacity:1"
       d="m 83,30 v 1 h 2 v 14 h -2 v 1 h 3 V 30 Z"
       id="path53172" />
    <g
       aria-label="somix"
       id="text53176"
       style="font-weight:bold;font-size:16px;line-height:1.25;font-family:Pretendard;-inkscape-font-specification:'Pretendard Bold';fill:#ffffff">
      <path
         d="M 41.140625,36.990234 Q 41.0625,36.544922 40.695312,36.279297 40.328125,36.013672 39.75,36.005859 q -0.5625,0.0078 -0.9375,0.25 -0.375,0.234375 -0.375,0.617188 0,0.304687 0.25,0.523437 0.257812,0.210938 0.84375,0.328125 l 1.515625,0.3125 q 1.242187,0.257813 1.84375,0.820313 0.601562,0.5625 0.609375,1.476562 0,0.828125 -0.476563,1.460938 -0.46875,0.632812 -1.320312,0.984375 -0.851563,0.351562 -1.96875,0.351562 -1.132813,0 -1.960938,-0.320312 -0.820312,-0.328125 -1.296875,-0.929688 -0.46875,-0.609375 -0.570312,-1.4375 h 2.328125 q 0.07813,0.492188 0.460937,0.75 0.390625,0.257813 1.039063,0.265625 0.640625,-0.0078 1.023437,-0.242187 0.382813,-0.242188 0.382813,-0.648438 0,-0.328125 -0.28125,-0.539062 -0.28125,-0.210938 -0.875,-0.335938 l -1.40625,-0.28125 Q 37.367187,39.169922 36.75,38.560547 q -0.617188,-0.609375 -0.609375,-1.554688 0,-0.804687 0.4375,-1.398437 0.4375,-0.601563 1.242187,-0.921875 0.8125,-0.320313 1.898438,-0.320313 1.054687,0 1.84375,0.320313 0.789062,0.320312 1.234375,0.914062 0.453125,0.585938 0.515625,1.390625 z"
         id="path1122" />
      <path
         d="m 48.734375,43.130859 q -1.265625,0 -2.210938,-0.546875 -0.9375,-0.554687 -1.445312,-1.546875 -0.5,-0.992187 -0.5,-2.296875 0,-1.304687 0.5,-2.289062 0.507812,-0.992188 1.445312,-1.539063 0.945313,-0.546875 2.210938,-0.546875 1.265625,0 2.203125,0.546875 0.945312,0.546875 1.453125,1.539063 0.515625,0.984375 0.515625,2.289062 0,1.304688 -0.515625,2.296875 Q 51.882812,42.029297 50.9375,42.583984 50,43.130859 48.734375,43.130859 Z m -1.8125,-4.390625 q 0,0.757813 0.203125,1.34375 0.210937,0.578125 0.625,0.914063 0.414062,0.335937 1,0.335937 0.570312,0 0.976562,-0.328125 0.40625,-0.335937 0.609375,-0.914062 0.210938,-0.578125 0.210938,-1.320313 0,-0.765625 -0.203125,-1.359375 -0.203125,-0.601562 -0.609375,-0.9375 -0.40625,-0.34375 -0.984375,-0.34375 -0.585938,0 -1,0.335938 -0.414063,0.335937 -0.625,0.929687 -0.203125,0.585938 -0.203125,1.34375 z"
         id="path1124" />
      <path
         d="M 54.359375,34.474609 H 56.5625 v 1.484375 h 0.09375 q 0.273437,-0.75 0.890625,-1.171875 0.617187,-0.421875 1.46875,-0.421875 0.867187,0 1.484375,0.429688 0.617187,0.429687 0.828125,1.164062 h 0.07813 q 0.265625,-0.726562 0.953125,-1.15625 0.6875,-0.4375 1.609375,-0.4375 0.789062,0 1.390625,0.34375 0.609375,0.335938 0.945312,0.992188 0.335938,0.648437 0.335938,1.554687 v 5.703125 h -2.3125 v -5.25 q 0.0078,-0.703125 -0.367188,-1.070312 Q 63.59375,36.271484 63,36.271484 q -0.640625,0 -1.015625,0.414063 -0.367188,0.40625 -0.359375,1.085937 v 5.1875 h -2.25 v -5.3125 q 0.0078,-0.625 -0.359375,-1 -0.359375,-0.375 -0.953125,-0.375 -0.390625,0 -0.710938,0.203125 -0.320312,0.195313 -0.5,0.5625 -0.179687,0.359375 -0.179687,0.828125 v 5.09375 h -2.3125 z"
         id="path1126" />
      <path
         d="m 68.421875,34.474609 h 2.3125 v 8.484375 h -2.3125 z m 1.15625,-1.109375 q -0.34375,0 -0.632813,-0.15625 Q 68.65625,33.044922 68.484375,32.779297 68.3125,32.505859 68.3125,32.193359 q 0,-0.320312 0.171875,-0.59375 0.171875,-0.273437 0.460937,-0.429687 0.289063,-0.164063 0.632813,-0.164063 0.335937,0 0.625,0.164063 0.289062,0.15625 0.453125,0.429687 0.171875,0.273438 0.171875,0.59375 0,0.3125 -0.171875,0.585938 -0.164063,0.265625 -0.453125,0.429687 -0.289063,0.15625 -0.625,0.15625 z"
         id="path1128" />
      <path
         d="m 76.03125,37.458984 1.609375,-2.984375 h 2.390625 l -2.484375,4.234375 2.546875,4.25 h -2.375 l -1.6875,-2.953125 -1.65625,2.953125 h -2.40625 l 2.53125,-4.25 -2.4375,-4.234375 h 2.390625 z"
         id="path1130" />
    </g>
    <rect
       style="fill:#00ad78;fill-opacity:1;stroke:none;stroke-width:8.0796;stroke-miterlimit:4;stroke-dasharray:none;stroke-opacity:1;paint-order:markers fill stroke"
       id="rect53178"
       width="24"
       height="24"
       x="0"
       y="26" />
    <path
       style="fill:#ffffff;fill-opacity:1;stroke:none;stroke-width:1px;stroke-linecap:butt;stroke-linejoin:miter;stroke-opacity:1"
       d="M 5,30 H 2 V 46 H 5 V 45 H 3 V 31 h 2 z"
       id="path53180" />
    <path
       style="fill:#ffffff;fill-opacity:1;stroke:none;stroke-width:1px;stroke-linecap:butt;stroke-linejoin:miter;stroke-opacity:1"
       d="m 19,30 v 1 h 2 v 14 h -2 v 1 h 3 V 30 Z"
       id="path53182" />
    <g
       aria-label="s"
       id="text53186"
       style="font-weight:bold;font-size:16px;line-height:1.25;font-family:Pretendard;-inkscape-font-specification:'Pretendard Bold';word-spacing:0px;fill:#ffffff">
      <path
         d="m 13.4375,36.850784 q -0.07813,-0.445312 -0.445312,-0.710937 -0.367188,-0.265625 -0.945313,-0.273438 -0.5625,0.0078 -0.9375,0.25 -0.375,0.234375 -0.375,0.617188 0,0.304687 0.25,0.523437 0.257813,0.210938 0.84375,0.328125 l 1.515625,0.3125 q 1.242188,0.257813 1.84375,0.820313 0.601563,0.5625 0.609375,1.476562 0,0.828125 -0.476562,1.460938 -0.46875,0.632812 -1.320313,0.984375 -0.851562,0.351562 -1.96875,0.351562 -1.132812,0 -1.960937,-0.320312 Q 9.25,42.342972 8.7734375,41.741409 8.3046875,41.132034 8.203125,40.303909 h 2.328125 q 0.07813,0.492188 0.460938,0.75 0.390625,0.257813 1.039062,0.265625 0.640625,-0.0078 1.023438,-0.242187 0.382812,-0.242188 0.382812,-0.648438 0,-0.328125 -0.28125,-0.539062 -0.28125,-0.210938 -0.875,-0.335938 L 10.875,39.272659 Q 9.6640625,39.030472 9.046875,38.421097 8.4296875,37.811722 8.4375,36.866409 q 0,-0.804687 0.4375,-1.398437 0.4375,-0.601563 1.242188,-0.921875 0.8125,-0.320313 1.898437,-0.320313 1.054688,0 1.84375,0.320313 0.789063,0.320312 1.234375,0.914062 0.453125,0.585938 0.515625,1.390625 z"
         id="path1151" />
    </g>
    <rect
       style="fill:#ffffff;fill-opacity:1;stroke:none;stroke-width:7.83836;stroke-miterlimit:4;stroke-dasharray:none;stroke-opacity:1;paint-order:markers fill stroke"
       id="rect53188"
       width="64"
       height="24"
       x="26"
       y="52" />
    <path
       style="fill:#00ad78;fill-opacity:1;stroke:none;stroke-width:1px;stroke-linecap:butt;stroke-linejoin:miter;stroke-opacity:1"
       d="m 33,56 h -3 v 16 h 3 V 71 H 31 V 57 h 2 z"
       id="path53190" />
    <path
       style="fill:#00ad78;fill-opacity:1;stroke:none;stroke-width:1px;stroke-linecap:butt;stroke-linejoin:miter;stroke-opacity:1"
       d="m 83,56 v 1 h 2 v 14 h -2 v 1 h 3 V 56 Z"
       id="path53192" />
    <g
       aria-label="somix"
       id="text53196"
       style="font-weight:bold;font-size:16px;line-height:1.25;font-family:Pretendard;-inkscape-font-specification:'Pretendard Bold';fill:#00ad78">
      <path
         d="M 41.140625,62.990234 Q 41.0625,62.544922 40.695312,62.279297 40.328125,62.013672 39.75,62.005859 q -0.5625,0.0078 -0.9375,0.25 -0.375,0.234375 -0.375,0.617188 0,0.304687 0.25,0.523437 0.257812,0.210938 0.84375,0.328125 l 1.515625,0.3125 q 1.242187,0.257813 1.84375,0.820313 0.601562,0.5625 0.609375,1.476562 0,0.828125 -0.476563,1.460938 -0.46875,0.632812 -1.320312,0.984375 -0.851563,0.351562 -1.96875,0.351562 -1.132813,0 -1.960938,-0.320312 -0.820312,-0.328125 -1.296875,-0.929688 -0.46875,-0.609375 -0.570312,-1.4375 h 2.328125 q 0.07813,0.492188 0.460937,0.75 0.390625,0.257813 1.039063,0.265625 0.640625,-0.0078 1.023437,-0.242187 0.382813,-0.242188 0.382813,-0.648438 0,-0.328125 -0.28125,-0.539062 -0.28125,-0.210938 -0.875,-0.335938 l -1.40625,-0.28125 Q 37.367187,65.169922 36.75,64.560547 q -0.617188,-0.609375 -0.609375,-1.554688 0,-0.804687 0.4375,-1.398437 0.4375,-0.601563 1.242187,-0.921875 0.8125,-0.320313 1.898438,-0.320313 1.054687,0 1.84375,0.320313 0.789062,0.320312 1.234375,0.914062 0.453125,0.585938 0.515625,1.390625 z"
         id="path1172" />
      <path
         d="m 48.734375,69.130859 q -1.265625,0 -2.210938,-0.546875 -0.9375,-0.554687 -1.445312,-1.546875 -0.5,-0.992187 -0.5,-2.296875 0,-1.304687 0.5,-2.289062 0.507812,-0.992188 1.445312,-1.539063 0.945313,-0.546875 2.210938,-0.546875 1.265625,0 2.203125,0.546875 0.945312,0.546875 1.453125,1.539063 0.515625,0.984375 0.515625,2.289062 0,1.304688 -0.515625,2.296875 Q 51.882812,68.029297 50.9375,68.583984 50,69.130859 48.734375,69.130859 Z m -1.8125,-4.390625 q 0,0.757813 0.203125,1.34375 0.210937,0.578125 0.625,0.914063 0.414062,0.335937 1,0.335937 0.570312,0 0.976562,-0.328125 0.40625,-0.335937 0.609375,-0.914062 0.210938,-0.578125 0.210938,-1.320313 0,-0.765625 -0.203125,-1.359375 -0.203125,-0.601562 -0.609375,-0.9375 -0.40625,-0.34375 -0.984375,-0.34375 -0.585938,0 -1,0.335938 -0.414063,0.335937 -0.625,0.929687 -0.203125,0.585938 -0.203125,1.34375 z"
         id="path1174" />
      <path
         d="M 54.359375,60.474609 H 56.5625 v 1.484375 h 0.09375 q 0.273437,-0.75 0.890625,-1.171875 0.617187,-0.421875 1.46875,-0.421875 0.867187,0 1.484375,0.429688 0.617187,0.429687 0.828125,1.164062 h 0.07813 q 0.265625,-0.726562 0.953125,-1.15625 0.6875,-0.4375 1.609375,-0.4375 0.789062,0 1.390625,0.34375 0.609375,0.335938 0.945312,0.992188 0.335938,0.648437 0.335938,1.554687 v 5.703125 h -2.3125 v -5.25 q 0.0078,-0.703125 -0.367188,-1.070312 Q 63.59375,62.271484 63,62.271484 q -0.640625,0 -1.015625,0.414063 -0.367188,0.40625 -0.359375,1.085937 v 5.1875 h -2.25 v -5.3125 q 0.0078,-0.625 -0.359375,-1 -0.359375,-0.375 -0.953125,-0.375 -0.390625,0 -0.710938,0.203125 -0.320312,0.195313 -0.5,0.5625 -0.179687,0.359375 -0.179687,0.828125 v 5.09375 h -2.3125 z"
         id="path1176" />
      <path
         d="m 68.421875,60.474609 h 2.3125 v 8.484375 h -2.3125 z m 1.15625,-1.109375 q -0.34375,0 -0.632813,-0.15625 Q 68.65625,59.044922 68.484375,58.779297 68.3125,58.505859 68.3125,58.193359 q 0,-0.320312 0.171875,-0.59375 0.171875,-0.273437 0.460937,-0.429687 0.289063,-0.164063 0.632813,-0.164063 0.335937,0 0.625,0.164063 0.289062,0.15625 0.453125,0.429687 0.171875,0.273438 0.171875,0.59375 0,0.3125 -0.171875,0.585938 -0.164063,0.265625 -0.453125,0.429687 -0.289063,0.15625 -0.625,0.15625 z"
         id="path1178" />
      <path
         d="m 76.03125,63.458984 1.609375,-2.984375 h 2.390625 l -2.484375,4.234375 2.546875,4.25 h -2.375 l -1.6875,-2.953125 -1.65625,2.953125 h -2.40625 l 2.53125,-4.25 -2.4375,-4.234375 h 2.390625 z"
         id="path1180" />
    </g>
    <rect
       style="fill:#ffffff;fill-opacity:1;stroke:none;stroke-width:8.0796;stroke-miterlimit:4;stroke-dasharray:none;stroke-opacity:1;paint-order:markers fill stroke"
       id="rect53198"
       width="24"
       height="24"
       x="0"
       y="52" />
    <path
       style="fill:#00ad78;fill-opacity:1;stroke:none;stroke-width:1px;stroke-linecap:butt;stroke-linejoin:miter;stroke-opacity:1"
       d="M 5,56 H 2 V 72 H 5 V 71 H 3 V 57 h 2 z"
       id="path53200" />
    <path
       style="fill:#00ad78;fill-opacity:1;stroke:none;stroke-width:1px;stroke-linecap:butt;stroke-linejoin:miter;stroke-opacity:1"
       d="m 19,56 v 1 h 2 v 14 h -2 v 1 h 3 V 56 Z"
       id="path53202" />
    <g
       aria-label="s"
       id="text53206"
       style="font-weight:bold;font-size:16px;line-height:1.25;font-family:Pretendard;-inkscape-font-specification:'Pretendard Bold';word-spacing:0px;fill:#00ad78">
      <path
         d="m 13.4375,62.850784 q -0.07813,-0.445312 -0.445312,-0.710937 -0.367188,-0.265625 -0.945313,-0.273438 -0.5625,0.0078 -0.9375,0.25 -0.375,0.234375 -0.375,0.617188 0,0.304687 0.25,0.523437 0.257813,0.210938 0.84375,0.328125 l 1.515625,0.3125 q 1.242188,0.257813 1.84375,0.820313 0.601563,0.5625 0.609375,1.476562 0,0.828125 -0.476562,1.460938 -0.46875,0.632812 -1.320313,0.984375 -0.851562,0.351562 -1.96875,0.351562 -1.132812,0 -1.960937,-0.320312 Q 9.25,68.342972 8.7734375,67.741409 8.3046875,67.132034 8.203125,66.303909 h 2.328125 q 0.07813,0.492188 0.460938,0.75 0.390625,0.257813 1.039062,0.265625 0.640625,-0.0078 1.023438,-0.242187 0.382812,-0.242188 0.382812,-0.648438 0,-0.328125 -0.28125,-0.539062 -0.28125,-0.210938 -0.875,-0.335938 L 10.875,65.272659 Q 9.6640625,65.030472 9.046875,64.421097 8.4296875,63.811722 8.4375,62.866409 q 0,-0.804687 0.4375,-1.398437 0.4375,-0.601563 1.242188,-0.921875 0.8125,-0.320313 1.898437,-0.320313 1.054688,0 1.84375,0.320313 0.789063,0.320312 1.234375,0.914062 0.453125,0.585938 0.515625,1.390625 z"
         id="path1831" />
    </g>
  </g>
</svg>
