<?xml version="1.0" encoding="UTF-8" standalone="no"?>
<!-- Created with Inkscape (http://www.inkscape.org/) -->

<svg
   width="16"
   height="16"
   viewBox="0 0 16 16"
   version="1.1"
   id="SVGRoot"
   sodipodi:docname="somix.svg"
   inkscape:version="1.2.2 (b0a8486541, 2022-12-01)"
   inkscape:export-filename="../Projects/matrix-social/assets/somix_v3.webp"
   inkscape:export-xdpi="1536"
   inkscape:export-ydpi="1536"
   xmlns:inkscape="http://www.inkscape.org/namespaces/inkscape"
   xmlns:sodipodi="http://sodipodi.sourceforge.net/DTD/sodipodi-0.dtd"
   xmlns="http://www.w3.org/2000/svg"
   xmlns:svg="http://www.w3.org/2000/svg">
  <sodipodi:namedview
     id="namedview1790"
     pagecolor="#ffffff"
     bordercolor="#111111"
     borderopacity="1"
     inkscape:showpageshadow="0"
     inkscape:pageopacity="0"
     inkscape:pagecheckerboard="1"
     inkscape:deskcolor="#d1d1d1"
     inkscape:document-units="px"
     showgrid="true"
     inkscape:zoom="64"
     inkscape:cx="2.0390625"
     inkscape:cy="8.203125"
     inkscape:window-width="1920"
     inkscape:window-height="1007"
     inkscape:window-x="0"
     inkscape:window-y="0"
     inkscape:window-maximized="1"
     inkscape:current-layer="layer1">
    <inkscape:grid
       type="xygrid"
       id="grid1796" />
  </sodipodi:namedview>
  <defs
     id="defs1785">
    <linearGradient
       id="linearGradient5385"
       inkscape:swatch="solid">
      <stop
         style="stop-color:#00bca0;stop-opacity:1;"
         offset="0"
         id="stop5383" />
    </linearGradient>
  </defs>
  <g
     inkscape:label="Layer 1"
     inkscape:groupmode="layer"
     id="layer1">
    <rect
       style="opacity:1;mix-blend-mode:normal;fill:#00bc82;fill-opacity:1;stroke-width:3.21866"
       id="rect1807"
       width="14"
       height="14"
       x="1"
       y="1"
       rx="1.3667744"
       ry="1.8949397" />
    <text
       xml:space="preserve"
       style="font-style:normal;font-variant:normal;font-weight:normal;font-stretch:normal;font-size:13.6224px;font-family:Mingzat;-inkscape-font-specification:Mingzat;fill:#f2f2f2;stroke-width:1.21952"
       x="3.0718751"
       y="14.841621"
       id="text282"
       transform="scale(1.2260203,0.81564718)"><tspan
         sodipodi:role="line"
         id="tspan280"
         x="3.0718751"
         y="14.841621"
         style="font-style:normal;font-variant:normal;font-weight:bold;font-stretch:normal;font-size:13.6224px;font-family:'URW Gothic';-inkscape-font-specification:'URW Gothic Bold';fill:#f2f2f2;stroke-width:1.21952">S</tspan></text>
    <path
       style="fill:#f2f2f2;stroke-width:0.015625"
       d="M 7.578125,12.226591 C 6.433163,12.133265 5.4929288,11.80976 4.8513464,11.288393 4.7065982,11.170766 4.4868986,10.938595 4.3885675,10.799344 4.2892088,10.658637 4.1730223,10.428098 4.1195855,10.265625 4.0766416,10.135055 4.0162913,9.869117 4.0158698,9.8085938 L 4.015625,9.7734375 h 1.1875 1.1875 v 0.037417 c 0,0.063579 0.062569,0.2467775 0.1192428,0.3491385 0.061863,0.111732 0.1995008,0.266613 0.2958263,0.332887 0.1760729,0.121141 0.417322,0.209765 0.7097451,0.260727 0.2158639,0.03762 0.8419474,0.03738 1.0470608,-4e-4 C 9.2035819,10.635123 9.6089095,10.357942 9.7104233,9.9682041 9.7999961,9.6243108 9.6381478,9.2551917 9.2958708,9.0227558 9.2421827,8.9862969 9.1272813,8.9231563 9.0405342,8.8824433 8.7728155,8.7567947 8.6097373,8.7086022 7.5078125,8.4294961 6.5177269,8.1787175 6.2289477,8.0845227 5.8125,7.8765134 5.455182,7.6980384 5.2391827,7.546813 4.9979899,7.3062583 4.68201,6.9911142 4.5184074,6.665898 4.4694095,6.2555238 4.4484373,6.0798742 4.4670513,5.8446119 4.5163058,5.6628 4.5573357,5.5113478 4.7122598,5.2006725 4.8156569,5.0625 5.4388334,4.2297308 6.7704484,3.7188623 8.203125,3.7629121 c 1.3787284,0.042391 2.539105,0.5164324 3.11286,1.2716769 0.194704,0.2562927 0.328938,0.5993613 0.363985,0.9302548 L 11.69114,6.0703125 10.513539,6.0702031 9.3359375,6.0700938 9.3087733,5.9575017 C 9.2677728,5.7875608 9.2099244,5.6859548 9.0784716,5.5529963 8.98577,5.4592327 8.932877,5.4206242 8.828125,5.3702592 8.6093697,5.2650811 8.3383977,5.2108925 8.0316598,5.2109832 7.2504273,5.2112143 6.7190719,5.5748555 6.7540603,6.0853277 c 0.018295,0.2669226 0.1943769,0.4750593 0.5541508,0.6550328 0.1905305,0.095311 0.2835948,0.1228148 1.2185912,0.3601364 0.854628,0.2169223 1.2311568,0.3200269 1.4966357,0.4098222 0.739772,0.2502201 1.35197,0.6626139 1.662046,1.1196 0.203306,0.2996286 0.298891,0.6152542 0.298891,0.9869478 0,0.5804451 -0.225555,1.0643451 -0.714057,1.5319201 C 10.680241,11.713586 9.815793,12.07439 8.7421875,12.20398 8.5042538,12.2327 7.816878,12.24605 7.578125,12.22659 Z"
       id="path296" />
    <path
       style="fill:#f2f2f2;stroke-width:0.015625"
       d="M 7.5546875,12.225619 C 6.4608158,12.141917 5.4856268,11.803827 4.8513464,11.288393 4.7065982,11.170766 4.4868986,10.938595 4.3885675,10.799344 4.2266578,10.570056 4.0959303,10.256084 4.0403901,9.9631177 4.0267693,9.8912698 4.015625,9.8191995 4.015625,9.8029614 c 0,-0.028689 0.033524,-0.029524 1.1857259,-0.029524 h 1.1857258 l 0.011089,0.073948 c 0.016344,0.1089884 0.079044,0.2643286 0.1517685,0.3760086 0.1847242,0.283674 0.530529,0.465282 1.0236734,0.537608 0.1816188,0.02664 0.7848761,0.02576 0.9498297,-0.0014 C 9.2772752,10.635605 9.7353281,10.265686 9.7341441,9.7818731 9.7332347,9.410135 9.4854177,9.0881503 9.0428488,8.8836828 8.7673581,8.7564061 8.5931469,8.7050706 7.4765625,8.4221392 6.7562258,8.2396131 6.4531556,8.1504527 6.1669242,8.0368558 5.8400003,7.9071092 5.5274887,7.7380427 5.28125,7.5577125 5.1178641,7.4380586 4.8487311,7.1641772 4.7509542,7.0180605 4.477182,6.6089381 4.3924958,6.1198159 4.5163058,5.6628 4.5574181,5.5110436 4.7124125,5.2004079 4.8158308,5.0625 5.4419063,4.2276309 6.768163,3.7187921 8.203125,3.7629121 c 1.6075773,0.049427 2.893564,0.6800735 3.325632,1.6308862 0.05876,0.1293056 0.134868,0.4167255 0.151213,0.5710455 l 0.01117,0.1054687 H 10.512759 9.3343773 l -0.01857,-0.089906 C 9.2829331,5.8212441 9.1983723,5.6703333 9.0733848,5.5477681 8.9113383,5.388862 8.7077767,5.2927868 8.421875,5.2402743 8.2324502,5.2054819 7.7609142,5.2131324 7.5843386,5.2538629 7.0335873,5.3809042 6.7253333,5.6904998 6.7537772,6.0880392 c 0.01867,0.2609424 0.205938,0.4784941 0.5665353,0.6581525 0.1707219,0.085058 0.3072745,0.1254852 1.0981083,0.3251025 1.6732922,0.4223619 2.0109272,0.5407353 2.5581422,0.8968744 0.563778,0.3669191 0.884332,0.7984137 0.984187,1.3248058 0.03016,0.1589897 0.03049,0.4841184 6.58e-4,0.6541976 -0.07663,0.436919 -0.298318,0.824378 -0.682853,1.193453 -0.595189,0.57126 -1.4712805,0.938679 -2.5363678,1.063714 -0.2456289,0.02884 -0.9287764,0.04108 -1.1874997,0.02128 z"
       id="path298" />
    <path
       style="fill:#f2f2f2;stroke-width:0.015625"
       d="M 7.5625,12.225052 C 6.5597278,12.154332 5.6507511,11.861117 4.9851262,11.39365 4.8208826,11.278302 4.5029733,10.96265 4.3919528,10.804688 4.2900198,10.659655 4.1735831,10.430359 4.1190419,10.267251 4.0775589,10.143194 4.015625,9.867045 4.015625,9.8061394 v -0.032702 h 1.1843738 1.1843739 l 0.020145,0.097532 c 0.077865,0.3769836 0.3494148,0.6589926 0.7679902,0.7975686 0.3931,0.130142 1.0224975,0.157398 1.4837423,0.06425 0.1804658,-0.03644 0.4511352,-0.133343 0.587213,-0.21022 0.1465426,-0.08279 0.3245281,-0.252261 0.3938343,-0.374997 C 9.807625,9.8459369 9.749285,9.4701486 9.4893519,9.1946058 9.3711984,9.0693569 9.2535175,8.9872266 9.0546875,8.8912505 8.789943,8.7634572 8.575127,8.6999258 7.421875,8.4083483 6.7585342,8.2406355 6.5436734,8.1787919 6.2718903,8.0773469 5.9210136,7.9463794 5.5781125,7.7699758 5.3207673,7.5880467 5.1531916,7.4695798 4.8503549,7.1677567 4.754262,7.0234375 4.5267848,6.6817963 4.4301691,6.3167841 4.4682151,5.9427583 4.489374,5.7347473 4.5306743,5.5854045 4.6183138,5.3999973 4.8493783,4.9111655 5.2568304,4.5327166 5.8828125,4.2255083 6.6183319,3.8645431 7.5376102,3.7045722 8.4765625,3.7741491 c 1.5547125,0.1152051 2.7744515,0.8025506 3.1042245,1.7492884 0.03842,0.1102998 0.08599,0.3242316 0.09989,0.4492188 l 0.01086,0.097656 h -1.17858 -1.1785797 l -0.019056,-0.09226 C 9.3048406,5.9273097 9.272067,5.8376613 9.2424913,5.7788339 9.0677164,5.4311995 8.6947613,5.2405159 8.140625,5.2154744 7.6458245,5.1931143 7.2021086,5.3229727 6.9659984,5.5592417 6.706918,5.8184966 6.6802747,6.1722814 6.8996675,6.4400216 c 0.1140448,0.1391765 0.352887,0.2906867 0.6027148,0.3823336 0.071737,0.026316 0.489024,0.1388431 0.9273052,0.2500604 0.8996405,0.2282911 1.4228541,0.3742149 1.7101125,0.4769491 0.405712,0.1450973 0.84581,0.3938176 1.152031,0.6510667 0.363605,0.3054559 0.589442,0.6735725 0.668316,1.0893613 0.03077,0.1622021 0.03139,0.4853445 0.0013,0.6580836 -0.102643,0.5885997 -0.517108,1.1524367 -1.150409,1.5650127 -0.8276337,0.53918 -2.0138705,0.799236 -3.248506,0.712163 z"
       id="path300" />
    <path
       style="fill:#f2f2f2;stroke-width:0.015625"
       d="M 7.5546875,12.22615 C 6.4689011,12.138334 5.5327312,11.821775 4.8978306,11.327755 4.7391097,11.204253 4.4850317,10.938946 4.3800668,10.787109 4.2863541,10.651549 4.1752339,10.434136 4.1255145,10.289063 4.0833566,10.166052 4.0159622,9.8758023 4.0157666,9.8164063 L 4.015625,9.7734375 h 1.1843738 1.1843739 l 0.019681,0.097656 c 0.010825,0.053711 0.051259,0.1631025 0.089853,0.2430935 0.1599727,0.33156 0.4875124,0.540418 0.9892074,0.630775 0.2408226,0.04337 0.8348728,0.0481 1.0639467,0.0085 C 9.3192169,10.619816 9.7716678,10.223746 9.7290202,9.71875 9.6949677,9.3155308 9.3979305,9.0089745 8.8365386,8.7976672 8.6518319,8.7281438 8.3786581,8.6524572 7.5703125,8.4468419 6.7480342,8.2376827 6.5409527,8.1788428 6.2734375,8.0783502 5.7395591,7.8777978 5.3423122,7.6418845 5.0274303,7.3383833 4.84507,7.1626141 4.7204195,6.9954891 4.6252,6.7990941 4.2727426,6.0721323 4.4946089,5.2472036 5.2010585,4.6579736 5.5883081,4.3349794 6.1281197,4.0718014 6.7111189,3.9217634 7.385858,3.7481157 8.1671459,3.7122477 8.9052936,3.8210316 10.185865,4.0097547 11.186377,4.6090513 11.528235,5.3921472 11.607023,5.5726261 11.6875,5.8966022 11.6875,6.0332967 v 0.037016 H 10.50997 9.3324391 L 9.3147741,5.9823516 C 9.2634223,5.7266527 9.0831828,5.5030311 8.8266391,5.3767269 8.6418973,5.285773 8.484098,5.2450693 8.2290423,5.2225794 7.8717995,5.1910789 7.51834,5.2432932 7.2578125,5.3660528 7.0295545,5.4736072 6.8991198,5.5958622 6.8065009,5.7890625 c -0.043981,0.091742 -0.048688,0.1159472 -0.048688,0.2503286 0,0.1370136 0.00411,0.1571205 0.052062,0.2545197 0.1102657,0.2239811 0.3804797,0.4234158 0.734295,0.5419548 0.075634,0.02534 0.4956605,0.1371769 0.9333921,0.2485272 1.3090676,0.3330008 1.679042,0.4474108 2.077926,0.6425725 0.697259,0.3411488 1.168651,0.806613 1.339924,1.3230766 0.07157,0.2158228 0.0887,0.3255115 0.08884,0.5690051 2.47e-4,0.412744 -0.104179,0.747015 -0.346579,1.109406 -0.108579,0.162327 -0.365616,0.436862 -0.54369,0.5807 -0.574233,0.463834 -1.4131757,0.786018 -2.3283629,0.894175 -0.2496325,0.0295 -0.9622834,0.04293 -1.2109375,0.02282 z"
       id="path302" />
    <path
       style="fill:#f2f2f2;stroke-width:0.015625"
       d="M 7.6328125,12.232801 C 6.3064748,12.130857 5.2589164,11.731282 4.6400281,11.09125 4.4048348,10.848021 4.2947684,10.689297 4.179504,10.427138 4.1187094,10.288867 4.0376508,9.9974505 4.021309,9.8584073 l -0.00999,-0.08497 h 1.1864257 1.1864257 l 0.017398,0.082031 c 0.067991,0.3205697 0.2732822,0.5815817 0.5736991,0.7294157 0.2865706,0.141019 0.5732094,0.192716 1.0716036,0.193265 0.5023297,5.53e-4 0.7663525,-0.05097 1.1015625,-0.214953 C 9.4300922,10.425409 9.5982086,10.258832 9.68947,10.027118 9.7439586,9.8887706 9.7412748,9.6648038 9.6832473,9.5078125 9.5477631,9.1412642 9.1892584,8.8900533 8.53125,8.7005861 8.3980469,8.6622316 7.9585938,8.5466866 7.5546875,8.4438192 6.7557767,8.2403517 6.5418034,8.1798748 6.2948103,8.0877308 5.7511167,7.8848986 5.3655993,7.6585997 5.0444524,7.3537702 4.8509116,7.170063 4.7236542,7.0018889 4.6247285,6.7990941 4.3113266,6.1566284 4.4472655,5.4338398 4.9900077,4.8569017 5.222605,4.6096493 5.5012162,4.4126768 5.8828125,4.2257068 c 0.4529938,-0.2219526 0.9217913,-0.3566624 1.5,-0.4310278 0.2676973,-0.034429 0.9981417,-0.039301 1.265625,-0.00844 0.9489028,0.1094779 1.6992075,0.3856798 2.2556275,0.8303403 0.435268,0.3478425 0.67325,0.7350553 0.758316,1.2338308 0.01381,0.081006 0.02512,0.1636236 0.02512,0.1835937 v 0.036309 H 10.510299 9.3330978 l -0.01993,-0.089844 C 9.2514897,5.7024198 9.0675947,5.4860355 8.7795853,5.3526163 8.539172,5.2412457 8.1819934,5.1924673 7.8358359,5.2237323 7.3298409,5.2694338 6.96822,5.4632738 6.8165878,5.7700805 c -0.054799,0.1108778 -0.058113,0.1261 -0.058246,0.2674939 -1.25e-4,0.1373617 0.0041,0.1586162 0.050403,0.2536309 0.119323,0.2448281 0.4254013,0.4553819 0.8353958,0.5746756 0.088301,0.025692 0.4769532,0.1273863 0.8636719,0.2259866 C 10.146224,7.509607 10.449134,7.618045 11,7.9840391 c 0.511429,0.3397925 0.79471,0.6978022 0.933713,1.1800234 0.03168,0.1098859 0.03961,0.1786656 0.04596,0.3984375 0.0067,0.2306341 0.0032,0.2871003 -0.02594,0.4286503 -0.08307,0.4027897 -0.269003,0.7358727 -0.601192,1.0769587 -0.59169,0.607537 -1.5002478,1.006232 -2.586917,1.135196 -0.2003228,0.02377 -0.9524634,0.04336 -1.1328125,0.0295 z"
       id="path304" />
    <path
       style="fill:#f2f2f2;stroke-width:0.015625"
       d="M 7.625,12.232844 C 6.6042542,12.143979 5.8427452,11.926462 5.2109375,11.543295 4.8304094,11.312519 4.4875373,10.981045 4.2924542,10.655345 4.1716363,10.453635 4.0488515,10.092751 4.021309,9.8584073 l -0.00999,-0.08497 h 1.1874942 1.1874942 l 0.017192,0.085607 c 0.045612,0.2271177 0.1941926,0.4657277 0.3737292,0.6001807 0.3010014,0.225418 0.6596336,0.315963 1.2540175,0.316606 0.3550434,3.84e-4 0.5228811,-0.01604 0.7382444,-0.07224 C 9.5562031,10.498304 9.9141125,9.9720822 9.641255,9.421875 9.5276059,9.1927058 9.3688764,9.0509048 9.0546875,8.8978653 8.7704966,8.7594377 8.6506895,8.7234833 7.4765625,8.4242656 6.5319719,8.1835436 6.2840309,8.1047069 5.8960025,7.9217017 5.397362,7.6865288 4.9674729,7.3466902 4.7446648,7.0115388 4.2895965,6.3270184 4.3818428,5.5071786 4.9866688,4.8607263 5.2237939,4.6072815 5.4874146,4.4206097 5.8828125,4.2261602 c 0.4627944,-0.2275938 0.9646402,-0.3688335 1.5625,-0.4397505 0.2615389,-0.031023 0.9918444,-0.026382 1.2734375,0.00809 1.331727,0.1630425 2.366593,0.7256632 2.765333,1.5034157 0.101835,0.1986297 0.203173,0.5621042 0.203367,0.7294247 l 5e-5,0.042969 H 10.510496 9.3334922 L 9.316255,5.9956375 C 9.2501291,5.7091639 9.0809359,5.5013467 8.8046875,5.3672877 8.4037255,5.1727068 7.7373005,5.164402 7.2990744,5.3485252 6.840058,5.5413833 6.6387544,5.9514245 6.8234909,6.3172545 c 0.053739,0.1064178 0.2316985,0.2759983 0.3817788,0.3638028 0.2097497,0.122714 0.3321469,0.162245 1.1384803,0.367699 1.788183,0.4556296 2.09616,0.5635907 2.644944,0.9271859 0.430085,0.2849509 0.72289,0.6091269 0.86704,0.959933 0.09176,0.223304 0.115795,0.3448346 0.123941,0.6266248 0.0067,0.2306341 0.0032,0.2871003 -0.02594,0.4286503 -0.0826,0.4005177 -0.266864,0.7322097 -0.594042,1.0693147 -0.602001,0.620266 -1.4854418,1.008513 -2.6018795,1.143451 -0.192662,0.02329 -0.9696958,0.04313 -1.1328125,0.02893 z"
       id="path306" />
    <path
       style="fill:#f2f2f2;stroke-width:0.015625"
       d="M 7.46875,12.219877 C 6.4581895,12.120462 5.6296456,11.848657 5.0123804,11.414063 4.7464374,11.226821 4.443562,10.907627 4.2924542,10.655345 4.172034,10.454299 4.0479626,10.091372 4.0216764,9.8632813 L 4.0113224,9.7734373 H 5.1981167 6.384911 L 6.412098,9.888757 c 0.049787,0.211184 0.1792153,0.417069 0.3535272,0.562365 0.1687459,0.140656 0.5084852,0.267 0.8203125,0.305063 0.2060873,0.02515 0.7665261,0.02174 0.9453125,-0.0058 C 9.2953591,10.632876 9.7799178,10.211591 9.7263494,9.7113756 9.6882592,9.3556948 9.4603881,9.0864717 9.0249092,8.8826444 8.7684869,8.7626252 8.556438,8.6993147 7.5859375,8.4530169 6.5674988,8.1945531 6.28846,8.1068291 5.8961533,7.9217831 5.3983104,7.6869572 4.9645362,7.3443684 4.7450634,7.0126688 4.2895777,6.3242713 4.382594,5.4979503 4.9875059,4.8589026 5.2293945,4.603364 5.4889871,4.4198796 5.8828125,4.2260849 6.344375,3.998958 6.8248728,3.8631178 7.4375,3.7865634 c 0.2514934,-0.031427 0.9986655,-0.026845 1.28125,0.00786 1.0643925,0.1307078 1.916589,0.5009776 2.450013,1.0645029 0.211155,0.2230705 0.342638,0.4445611 0.432193,0.7280526 0.0413,0.1307249 0.08654,0.359993 0.08654,0.4385094 v 0.044828 H 10.511443 9.3353859 L 9.3087139,5.9686192 C 9.2940442,5.912688 9.2632883,5.8272842 9.2403673,5.7788334 9.1884467,5.6690823 9.0168559,5.4865464 8.8985955,5.4152611 8.4806938,5.1633577 7.6969859,5.1498207 7.2195695,5.3862592 7.0557259,5.4674022 6.8865783,5.6262089 6.8222108,5.7593252 6.6411116,6.1338511 6.8243766,6.4923684 7.3239347,6.7408364 7.4928427,6.8248472 7.6034213,6.8574748 8.5,7.08785 c 1.1143577,0.2863333 1.4584461,0.3856936 1.785462,0.5155767 0.299344,0.1188931 0.594678,0.2841378 0.862976,0.482851 0.469933,0.348054 0.747625,0.7704203 0.821457,1.2494268 0.02968,0.192561 0.01096,0.5710233 -0.03731,0.7541305 -0.171815,0.65181 -0.711881,1.243698 -1.492028,1.635194 -0.487143,0.24446 -1.0987555,0.416206 -1.7296185,0.485692 -0.2502253,0.02756 -0.9989989,0.03308 -1.2421875,0.0092 z"
       id="path308" />
    <path
       style="fill:#f2f2f2;stroke-width:0.015625"
       d="M 7.6015625,12.232518 C 6.5450316,12.147139 5.6592414,11.86729 5.0119098,11.414366 4.8538723,11.30379 4.509975,10.972611 4.4112678,10.835938 4.2090793,10.555979 4.0592911,10.181576 4.0217762,9.8623827 L 4.0113222,9.7734377 H 5.198487 6.3856519 l 0.019754,0.089844 c 0.081525,0.3707773 0.3544536,0.6579283 0.755175,0.7945273 0.2847895,0.09708 0.5078992,0.122046 0.9939598,0.111226 0.3215569,-0.0072 0.3899497,-0.01324 0.5329586,-0.04736 0.3682381,-0.08787 0.6051673,-0.206554 0.79822,-0.399861 C 9.6909881,10.116275 9.7651442,9.8943245 9.7133778,9.6404294 9.6477484,9.3185402 9.4521786,9.0954413 9.0703125,8.9068439 8.7900214,8.7684128 8.6110514,8.7139398 7.5546875,8.4455341 6.3971469,8.1514208 6.0380955,8.0257053 5.5717403,7.7512406 5.2446754,7.5587527 4.906441,7.2565664 4.7450634,7.0126688 4.1711399,6.1452705 4.4718536,5.1103112 5.4921875,4.4413092 5.6686278,4.3256226 6.0833834,4.1214108 6.2890625,4.0489546 6.8479181,3.852082 7.4144713,3.7577503 8.0374253,3.7578504 c 1.580618,2.541e-4 2.9345657,0.5973479 3.4366877,1.5155871 0.09949,0.1819394 0.213387,0.5833492 0.213387,0.7520467 v 0.044828 H 10.50892 9.3303406 L 9.3129227,5.9864108 C 9.2859289,5.8563825 9.2009539,5.6960005 9.1029953,5.5901936 8.869615,5.338115 8.5357803,5.2226005 8.0390625,5.2220485 7.5100667,5.2214605 7.1162802,5.3673009 6.8988484,5.6443316 6.7999822,5.7702973 6.7609777,5.8849581 6.7617248,6.0474302 c 5.172e-4,0.112354 0.00733,0.145789 0.046743,0.2295398 0.087899,0.18676 0.2675289,0.3445714 0.5376023,0.4723033 0.1758581,0.083173 0.2477392,0.1043781 1.0679925,0.3150676 1.4127156,0.3628689 1.7775234,0.4759025 2.1666034,0.6713102 0.61805,0.3104036 1.067352,0.7280345 1.263684,1.1746102 0.113514,0.2581964 0.132312,0.3603926 0.13147,0.7147387 -6.82e-4,0.2867136 -0.0041,0.3248898 -0.04151,0.462649 -0.05321,0.195962 -0.138226,0.39177 -0.241575,0.556387 -0.112153,0.178637 -0.182355,0.265499 -0.36148,0.44726 -0.582948,0.591525 -1.4786706,0.980135 -2.5656279,1.1131 -0.1874955,0.02294 -0.9887127,0.04229 -1.1640625,0.02812 z"
       id="path310" />
  </g>
</svg>
